# xmcd
#
# Track frame offsets:
#	150
#	15002
#	30840
#	50925
#	74805
#	102045
#	126000
#	147210
#	167957
#	188052
#	203380
#	221995
#	242260
#	267210
#	299255
#	317057
#
# Disc length: 4469
#
# Revision: 1
# Processed by: cddbd v1.5.1PL0 Copyright (c) Steve Scherf et al.
# Submitted via: EasyCDDAExtractor 5.0.5.1
# Normalized: r0:DSETVAR1
#
DISCID=e2117310
DTITLE=Various Artist - Pure Moods III
DYEAR=2000
DGENRE=Easy Listening
TTITLE0=Enya - Only If
TTITLE1=Moby - Porcelain
TTITLE2=Mono - Life In Mono
TTITLE3=Peter Gabriel - Games Without Frontiers (Massive/DB Mix)
TTITLE4=David Lanz - Cristofori's Dream
TTITLE5=Geoffrey Oryema and Brian Eno - Land of Anaka
TTITLE6=Sacred Spirit - Dela Dela
TTITLE7=Ryuichi Sakamoto - Merry Christmas, Mr. Lawrence
TTITLE8=Suzanne Ciani - The Velocity of Love
TTITLE9=Sheila Chandra - Ever So Lonely, Eyes, Ocean
TTITLE10=Jesse Cook - Virtue
TTITLE11=Kitaro - Silk Road
TTITLE12=Blue Man Group - Synaesthetic
TTITLE13=Yanni - On Sacred Ground
TTITLE14=Enigma - Gravity Of Love
TTITLE15=Sarah Brightman - Deliver Me
EXTD=YEAR: 2000 ID3G: 98
EXTT0=
EXTT1=
EXTT2=
EXTT3=
EXTT4=
EXTT5=
EXTT6=
EXTT7=
EXTT8=
EXTT9=
EXTT10=
EXTT11=
EXTT12=
EXTT13=
EXTT14=
EXTT15=
PLAYORDER=
